<svg width="16" height="16" viewBox="0 0 16 16" fill="none" xmlns="http://www.w3.org/2000/svg">
<path d="M8.34308 8.038C8.40773 8.01655 8.47303 7.99739 8.53865 7.97822C8.41422 7.69655 8.27843 7.41424 8.13646 7.1355C5.58328 7.90025 3.13341 7.84502 3.0457 7.84177C3.04407 7.89505 3.04147 7.94638 3.04147 7.99966C3.04147 9.27381 3.52196 10.4349 4.31205 11.313C4.3114 11.3117 4.3101 11.3104 4.3101 11.3104C4.3101 11.3104 5.66742 8.90346 8.34308 8.038Z" fill="#1E266D"/>
<path d="M7.72517 6.3724C6.86718 4.84744 5.95038 3.60318 5.88444 3.51514C4.50145 4.16813 3.46933 5.44228 3.14771 6.97796C3.2783 6.97926 5.3445 7.00525 7.72517 6.3724Z" fill="#1E266D"/>
<path d="M11.2747 4.27854C10.4014 3.50892 9.25496 3.04175 7.99998 3.04175C7.59714 3.04175 7.20631 3.09048 6.83109 3.18079C6.90581 3.28053 7.83754 4.51635 8.68514 6.07379C10.5564 5.37174 11.2627 4.29673 11.2747 4.27854Z" fill="#1E266D"/>
<path d="M6.81259 3.18579C6.80674 3.18644 6.80187 3.18709 6.79602 3.18969C6.80544 3.18709 6.81129 3.18579 6.81129 3.18579H6.81259Z" fill="#1E266D"/>
<path d="M4.95203 11.9086L4.953 11.9067C4.91629 11.8781 4.87731 11.8521 4.84125 11.8215C4.9072 11.8751 4.95203 11.9086 4.95203 11.9086Z" fill="#1E266D"/>
<path d="M9.06656 6.81233C9.18189 7.04916 9.293 7.28957 9.39663 7.53128C9.43269 7.61834 9.46843 7.70313 9.50319 7.78825C11.2068 7.57383 12.8851 7.93477 12.9569 7.94939C12.9455 6.77367 12.5248 5.69509 11.8293 4.8501C11.8195 4.86342 11.0246 6.01282 9.06656 6.81233Z" fill="#1E266D"/>
<path d="M8.84368 8.81085C5.91723 9.83128 4.9621 11.8871 4.953 11.9066C5.7941 12.5631 6.84994 12.9579 7.99966 12.9579C8.68612 12.9579 9.34041 12.8182 9.93558 12.5651C9.86184 12.1317 9.574 10.6132 8.87585 8.7998C8.86545 8.80403 8.85473 8.80728 8.84368 8.81085Z" fill="#1E266D"/>
<path d="M8 0C3.58173 0 0 3.58238 0 8C0 12.4183 3.5814 15.9993 8 15.9993C12.4183 15.9993 16 12.4183 16 8C16 3.58238 12.4179 0 8 0ZM13.3494 10.2601C13.2041 10.6048 13.0238 10.9365 12.814 11.2461C12.6064 11.5538 12.3679 11.8426 12.1051 12.1054C11.8423 12.3676 11.5538 12.6061 11.2465 12.8143C10.9362 13.0238 10.6035 13.2038 10.2598 13.3497C9.90895 13.4975 9.54217 13.6112 9.16922 13.6879C8.78652 13.7665 8.3931 13.8065 7.99968 13.8065C7.60625 13.8065 7.21283 13.7665 6.83013 13.6879C6.45718 13.6112 6.08975 13.4975 5.73953 13.3497C5.39517 13.2038 5.06282 13.0235 4.75257 12.8143C4.44556 12.6061 4.15643 12.3676 3.89393 12.1054C3.63111 11.8426 3.39265 11.5541 3.18506 11.2461C2.97551 10.9365 2.79553 10.6045 2.64966 10.2601C2.50152 9.90928 2.38749 9.5425 2.31082 9.16889C2.23318 8.78619 2.19354 8.39342 2.19354 8C2.19354 7.60658 2.23318 7.21316 2.31082 6.83111C2.38749 6.4575 2.50152 6.09007 2.64966 5.73986C2.79553 5.39517 2.97584 5.06282 3.18506 4.75289C3.39265 4.44524 3.63111 4.15708 3.89393 3.8936C4.15643 3.63143 4.44524 3.39362 4.75257 3.18538C5.06282 2.97551 5.39517 2.79521 5.73953 2.64934C6.08975 2.50087 6.45718 2.38717 6.83013 2.31115C7.21283 2.23318 7.60625 2.19322 7.99968 2.19322C8.3931 2.19322 8.78652 2.23318 9.16922 2.31115C9.54217 2.38717 9.90895 2.50087 10.2598 2.64934C10.6039 2.79521 10.9362 2.97551 11.2465 3.18538C11.5535 3.39362 11.8423 3.63143 12.1051 3.8936C12.3679 4.15708 12.6064 4.44491 12.814 4.75289C13.0238 5.0625 13.2041 5.39517 13.3494 5.73986C13.4978 6.09007 13.6115 6.4575 13.6876 6.83111C13.7662 7.21316 13.8061 7.60658 13.8061 8C13.8061 8.39342 13.7662 8.78619 13.6876 9.16889C13.6115 9.5425 13.4982 9.90928 13.3494 10.2601Z" fill="#1E266D"/>
<path d="M9.80563 8.57041C10.456 10.3579 10.7198 11.8133 10.7708 12.1122C11.8838 11.3611 12.6749 10.1681 12.8952 8.78613C12.7932 8.75332 11.406 8.31409 9.80563 8.57041Z" fill="#1E266D"/>
</svg>
